<?xml version="1.0" standalone="no"?>
<!DOCTYPE svg PUBLIC "-//W3C//DTD SVG 20010904//EN"
 "http://www.w3.org/TR/2001/REC-SVG-20010904/DTD/svg10.dtd">
<svg version="1.0" xmlns="http://www.w3.org/2000/svg"
 width="353.000000pt" height="90.000000pt" viewBox="0 0 353.000000 90.000000"
 preserveAspectRatio="xMidYMid meet">

<g transform="translate(0.000000,90.000000) scale(0.100000,-0.100000)"
fill="#000000" stroke="none">
<path d="M719 794 c-29 -30 -34 -42 -35 -87 -1 -80 -62 -397 -85 -444 -39 -80
-60 -88 -251 -91 -154 -3 -168 -2 -168 14 0 16 93 554 106 614 5 22 0 20 -39
-20 l-45 -45 -36 -210 c-19 -116 -45 -266 -57 -333 -19 -106 -20 -125 -8 -133
18 -13 301 -4 350 10 19 6 54 27 77 47 l43 36 -3 -43 -3 -44 189 -2 c117 -2
196 1 208 8 18 10 57 80 58 104 0 6 -29 9 -75 7 -68 -3 -75 -2 -75 16 0 10 23
147 50 305 28 158 50 294 50 302 0 14 -4 14 -28 -3 -26 -19 -29 -30 -76 -308
-27 -159 -54 -292 -60 -296 -6 -4 -41 -8 -78 -8 -53 0 -68 3 -68 15 0 13 94
562 104 608 6 26 -6 21 -45 -19z"/>
<path d="M1335 818 c-2 -7 -7 -31 -12 -53 l-9 -40 -91 -3 c-56 -2 -95 -7 -101
-15 -5 -7 -13 -31 -17 -54 l-7 -43 70 0 71 0 6 -52 c4 -30 2 -65 -4 -80 -10
-27 -14 -28 -78 -28 -38 0 -74 -4 -80 -8 -7 -5 -16 -29 -19 -55 -6 -44 -5 -46
20 -53 15 -3 45 -4 67 -1 47 6 46 14 19 -139 -11 -63 -18 -119 -15 -125 4 -5
49 -9 101 -9 l95 0 15 36 c8 19 17 48 21 65 l6 29 -72 0 c-39 0 -71 3 -71 6 0
13 101 600 106 617 3 9 0 17 -6 17 -6 0 -12 -6 -15 -12z"/>
<path d="M2609 796 c-22 -19 -27 -34 -32 -97 -11 -115 -74 -438 -91 -465 -33
-49 -77 -60 -233 -56 -71 2 -85 5 -112 28 -53 44 -54 69 -12 317 21 123 43
233 50 245 16 31 7 27 -27 -9 -21 -23 -32 -46 -36 -81 -11 -80 -9 -78 -97 -78
l-79 0 6 28 c3 15 7 32 9 37 1 6 -1 20 -6 33 -9 25 -36 29 -63 9 -19 -14 -39
-85 -28 -101 4 -6 7 -33 7 -61 l0 -50 94 -3 93 -3 -6 -29 c-4 -23 -2 -30 11
-30 13 0 15 -9 9 -62 -16 -142 -76 -198 -222 -206 -129 -7 -190 25 -201 105
-6 47 70 468 89 490 11 14 9 14 -19 0 -17 -9 -35 -21 -38 -27 -3 -5 -41 -10
-83 -10 -42 0 -82 -4 -89 -8 -6 -4 -14 -21 -18 -37 -4 -17 -9 -38 -11 -47 -4
-15 5 -18 68 -20 47 -2 72 -7 71 -14 -1 -6 -7 -39 -12 -73 -5 -34 -13 -66 -16
-71 -3 -6 -35 -10 -70 -10 -35 0 -66 -4 -69 -9 -4 -5 -9 -30 -12 -55 l-7 -46
52 0 c29 0 61 5 71 10 18 10 19 6 13 -88 -9 -146 15 -177 142 -189 92 -8 188
5 227 31 18 12 42 38 53 59 24 45 31 46 38 8 13 -63 87 -95 222 -96 86 0 139
19 180 65 l20 22 5 -43 5 -44 150 0 c182 0 211 6 271 51 l47 36 -6 -35 c-3
-20 -1 -39 6 -46 12 -12 332 -16 362 -5 9 4 27 28 41 55 l24 49 -176 0 -176 0
6 27 c3 16 26 154 51 308 25 154 49 288 52 299 4 16 -1 14 -31 -9 -32 -24 -36
-32 -36 -74 0 -83 -66 -416 -91 -461 -40 -71 -52 -75 -248 -78 l-174 -4 6 24
c14 55 108 601 105 608 -2 5 -15 -2 -29 -14z"/>
<path d="M2340 722 c-30 -24 -41 -91 -19 -113 15 -15 15 -25 3 -108 -8 -50
-18 -110 -24 -133 -16 -72 -13 -88 15 -88 37 0 51 37 80 211 14 85 28 166 31
181 4 19 -1 33 -15 47 -26 26 -42 26 -71 3z"/>
<path d="M2785 718 c-11 -30 -22 -108 -15 -108 20 0 19 -45 -6 -177 -15 -78
-25 -145 -22 -148 11 -11 59 8 73 29 7 11 28 99 45 195 38 204 36 221 -30 221
-23 0 -43 -5 -45 -12z"/>
<path d="M420 664 c-9 -41 -9 -59 -1 -67 17 -17 13 -61 -14 -192 -14 -66 -25
-123 -25 -126 0 -11 54 3 71 18 16 14 22 37 59 233 32 168 27 190 -41 190 -38
0 -38 0 -49 -56z"/>
<path d="M3262 703 c-5 -10 -12 -37 -16 -60 l-6 -43 85 0 c47 0 85 1 85 3 0 1
9 27 20 57 11 30 20 55 20 55 0 0 -40 2 -89 3 -78 3 -91 1 -99 -15z"/>
<path d="M3297 442 c-86 -3 -87 -4 -100 -84 l-6 -38 74 0 c42 0 77 5 81 11 7
11 35 113 31 114 -1 0 -37 -1 -80 -3z"/>
<path d="M1856 369 c-32 -38 -35 -79 -5 -79 21 0 49 51 49 90 0 28 -14 25 -44
-11z"/>
</g>
</svg>
